<svg xmlns="http://www.w3.org/2000/svg" width="78" height="29" viewBox="0 0 78 29" fill="none">
  <path d="M61.75 8.5H60.25V7.75C60.25 7.55109 60.171 7.36032 60.0303 7.21967C59.8897 7.07902 59.6989 7 59.5 7C59.3011 7 59.1103 7.07902 58.9697 7.21967C58.829 7.36032 58.75 7.55109 58.75 7.75V8.5H54.25V7.75C54.25 7.55109 54.171 7.36032 54.0303 7.21967C53.8897 7.07902 53.6989 7 53.5 7C53.3011 7 53.1103 7.07902 52.9697 7.21967C52.829 7.36032 52.75 7.55109 52.75 7.75V8.5H51.25C50.6533 8.5 50.081 8.73705 49.659 9.15901C49.2371 9.58097 49 10.1533 49 10.75V19.75C49 20.3467 49.2371 20.919 49.659 21.341C50.081 21.7629 50.6533 22 51.25 22H61.75C62.3467 22 62.919 21.7629 63.341 21.341C63.7629 20.919 64 20.3467 64 19.75V10.75C64 10.1533 63.7629 9.58097 63.341 9.15901C62.919 8.73705 62.3467 8.5 61.75 8.5ZM62.5 19.75C62.5 19.9489 62.421 20.1397 62.2803 20.2803C62.1397 20.421 61.9489 20.5 61.75 20.5H51.25C51.0511 20.5 50.8603 20.421 50.7197 20.2803C50.579 20.1397 50.5 19.9489 50.5 19.75V14.5H62.5V19.75ZM62.5 13H50.5V10.75C50.5 10.5511 50.579 10.3603 50.7197 10.2197C50.8603 10.079 51.0511 10 51.25 10H52.75V10.75C52.75 10.9489 52.829 11.1397 52.9697 11.2803C53.1103 11.421 53.3011 11.5 53.5 11.5C53.6989 11.5 53.8897 11.421 54.0303 11.2803C54.171 11.1397 54.25 10.9489 54.25 10.75V10H58.75V10.75C58.75 10.9489 58.829 11.1397 58.9697 11.2803C59.1103 11.421 59.3011 11.5 59.5 11.5C59.6989 11.5 59.8897 11.421 60.0303 11.2803C60.171 11.1397 60.25 10.9489 60.25 10.75V10H61.75C61.9489 10 62.1397 10.079 62.2803 10.2197C62.421 10.3603 62.5 10.5511 62.5 10.75V13Z" fill="#768396"/>
  <path fill-rule="evenodd" clip-rule="evenodd" d="M27.85 17.1C27.5334 17.1 27.0862 17.1437 26.6206 17.2075C26.4031 17.2373 26.2373 17.4031 26.2075 17.6206C26.1437 18.0862 26.1 18.5334 26.1 18.85C26.1 19.1665 26.1437 19.6137 26.2075 20.0793C26.2373 20.2968 26.4031 20.4626 26.6206 20.4924C27.0862 20.5562 27.5334 20.6 27.85 20.6C28.1665 20.6 28.6137 20.5562 29.0793 20.4924C29.2968 20.4626 29.4626 20.2968 29.4924 20.0793C29.5562 19.6137 29.6 19.1665 29.6 18.85C29.6 18.5334 29.5562 18.0862 29.4924 17.6206C29.4626 17.4031 29.2968 17.2373 29.0793 17.2075C28.6137 17.1437 28.1665 17.1 27.85 17.1ZM26.4307 15.8204C25.5907 15.9354 24.9354 16.5907 24.8204 17.4307C24.7544 17.9124 24.7 18.4357 24.7 18.85C24.7 19.2642 24.7544 19.7875 24.8204 20.2692C24.9354 21.1092 25.5907 21.7645 26.4307 21.8795C26.9124 21.9455 27.4357 22 27.85 22C28.2642 22 28.7875 21.9455 29.2692 21.8795C30.1092 21.7645 30.7645 21.1092 30.8795 20.2692C30.9455 19.7875 31 19.2642 31 18.85C31 18.4357 30.9455 17.9124 30.8795 17.4307C30.7645 16.5907 30.1092 15.9354 29.2692 15.8204C28.7875 15.7544 28.2642 15.7 27.85 15.7C27.4357 15.7 26.9124 15.7544 26.4307 15.8204Z" fill="#C8CCD7"/>
  <path fill-rule="evenodd" clip-rule="evenodd" d="M20.15 17.1C19.8335 17.1 19.3862 17.1437 18.9207 17.2075C18.7032 17.2373 18.5373 17.4031 18.5075 17.6206C18.4438 18.0862 18.4 18.5334 18.4 18.85C18.4 19.1665 18.4438 19.6137 18.5075 20.0793C18.5373 20.2968 18.7032 20.4626 18.9207 20.4924C19.3862 20.5562 19.8335 20.6 20.15 20.6C20.4665 20.6 20.9138 20.5562 21.3793 20.4924C21.5968 20.4626 21.7627 20.2968 21.7925 20.0793C21.8562 19.6137 21.9 19.1665 21.9 18.85C21.9 18.5334 21.8562 18.0862 21.7925 17.6206C21.7627 17.4031 21.5968 17.2373 21.3793 17.2075C20.9138 17.1437 20.4665 17.1 20.15 17.1ZM18.7307 15.8204C17.8908 15.9354 17.2355 16.5907 17.1205 17.4307C17.0545 17.9124 17 18.4357 17 18.85C17 19.2642 17.0545 19.7875 17.1205 20.2692C17.2355 21.1092 17.8908 21.7645 18.7307 21.8795C19.2125 21.9455 19.7357 22 20.15 22C20.5643 22 21.0875 21.9455 21.5693 21.8795C22.4092 21.7645 23.0645 21.1092 23.1795 20.2692C23.2455 19.7875 23.3 19.2642 23.3 18.85C23.3 18.4357 23.2455 17.9124 23.1795 17.4307C23.0645 16.5907 22.4092 15.9354 21.5693 15.8204C21.0875 15.7544 20.5643 15.7 20.15 15.7C19.7357 15.7 19.2125 15.7544 18.7307 15.8204Z" fill="#C8CCD7"/>
  <path fill-rule="evenodd" clip-rule="evenodd" d="M27.85 9.4C27.5334 9.4 27.0862 9.44375 26.6206 9.50752C26.4031 9.53731 26.2373 9.70316 26.2075 9.92067C26.1437 10.3862 26.1 10.8335 26.1 11.15C26.1 11.4665 26.1437 11.9138 26.2075 12.3793C26.2373 12.5968 26.4031 12.7627 26.6206 12.7925C27.0862 12.8562 27.5334 12.9 27.85 12.9C28.1665 12.9 28.6137 12.8562 29.0793 12.7925C29.2968 12.7627 29.4626 12.5968 29.4924 12.3793C29.5562 11.9138 29.6 11.4665 29.6 11.15C29.6 10.8335 29.5562 10.3862 29.4924 9.92067C29.4626 9.70316 29.2968 9.53731 29.0793 9.50752C28.6137 9.44375 28.1665 9.4 27.85 9.4ZM26.4307 8.12046C25.5907 8.2355 24.9354 8.89077 24.8204 9.73071C24.7544 10.2125 24.7 10.7357 24.7 11.15C24.7 11.5643 24.7544 12.0875 24.8204 12.5693C24.9354 13.4092 25.5907 14.0645 26.4307 14.1795C26.9124 14.2455 27.4357 14.3 27.85 14.3C28.2642 14.3 28.7875 14.2455 29.2692 14.1795C30.1092 14.0645 30.7645 13.4092 30.8795 12.5693C30.9455 12.0875 31 11.5643 31 11.15C31 10.7357 30.9455 10.2125 30.8795 9.73071C30.7645 8.89077 30.1092 8.2355 29.2692 8.12046C28.7875 8.05449 28.2642 8 27.85 8C27.4357 8 26.9124 8.05449 26.4307 8.12046Z" fill="#C8CCD7"/>
  <path fill-rule="evenodd" clip-rule="evenodd" d="M20.15 9.4C19.8335 9.4 19.3862 9.44375 18.9207 9.50752C18.7032 9.53731 18.5373 9.70316 18.5075 9.92067C18.4438 10.3862 18.4 10.8335 18.4 11.15C18.4 11.4665 18.4438 11.9138 18.5075 12.3793C18.5373 12.5968 18.7032 12.7627 18.9207 12.7925C19.3862 12.8562 19.8335 12.9 20.15 12.9C20.4665 12.9 20.9138 12.8562 21.3793 12.7925C21.5968 12.7627 21.7627 12.5968 21.7925 12.3793C21.8562 11.9138 21.9 11.4665 21.9 11.15C21.9 10.8335 21.8562 10.3862 21.7925 9.92067C21.7627 9.70316 21.5968 9.53731 21.3793 9.50752C20.9138 9.44375 20.4665 9.4 20.15 9.4ZM18.7307 8.12046C17.8908 8.2355 17.2355 8.89077 17.1205 9.73071C17.0545 10.2125 17 10.7357 17 11.15C17 11.5643 17.0545 12.0875 17.1205 12.5693C17.2355 13.4092 17.8908 14.0645 18.7307 14.1795C19.2125 14.2455 19.7357 14.3 20.15 14.3C20.5643 14.3 21.0875 14.2455 21.5693 14.1795C22.4092 14.0645 23.0645 13.4092 23.1795 12.5693C23.2455 12.0875 23.3 11.5643 23.3 11.15C23.3 10.7357 23.2455 10.2125 23.1795 9.73071C23.0645 8.89077 22.4092 8.2355 21.5693 8.12046C21.0875 8.05449 20.5643 8 20.15 8C19.7357 8 19.2125 8.05449 18.7307 8.12046Z" fill="#C8CCD7"/>
</svg>