<svg xmlns="http://www.w3.org/2000/svg" width="20" height="20" viewBox="0 0 20 20" fill="none">
<path fill-rule="evenodd" clip-rule="evenodd" d="M3.94826 0.451528C2.12109 0.718425 0.718425 2.12109 0.451528 3.94826C0.218688 5.54228 0 7.6618 0 10C0 11.7155 0.0945032 13.4509 0.320196 15.158C0.373601 15.5619 0.864302 15.7213 1.15241 15.4332L4.5858 11.9998C5.36685 11.2188 6.63318 11.2188 7.41423 11.9998L8.64646 13.2321C8.84172 13.4273 9.15831 13.4273 9.35357 13.2321L12.5858 9.99985C13.3669 9.2188 14.6332 9.2188 15.4142 9.99985L19.0231 13.6087C19.3204 13.906 19.827 13.7259 19.8614 13.3069C19.9453 12.285 20 11.1699 20 10C20 7.6618 19.7813 5.54228 19.5485 3.94826C19.2816 2.12109 17.8789 0.718425 16.0517 0.451528C14.4577 0.218688 12.3382 0 10 0C7.6618 0 5.54228 0.218687 3.94826 0.451528ZM8 6C8 7.10457 7.10457 8 6 8C4.89543 8 4 7.10457 4 6C4 4.89543 4.89543 4 6 4C7.10457 4 8 4.89543 8 6Z" fill="#5051F9"/>
<path d="M19.2638 17.077C19.3374 16.9021 19.2884 16.7024 19.1542 16.5683L14.3536 11.7676C14.1583 11.5724 13.8417 11.5724 13.6465 11.7676L10.4142 14.9998C9.63318 15.7809 8.36685 15.7809 7.5858 14.9998L6.35357 13.7676C6.15831 13.5724 5.84172 13.5724 5.64646 13.7676L1.65605 17.758C1.47469 17.9394 1.45777 18.2312 1.64075 18.4109C2.24995 19.0093 3.04752 19.4169 3.94826 19.5485C5.54228 19.7813 7.6618 20 10 20C12.3382 20 14.4577 19.7813 16.0517 19.5485C17.5189 19.3342 18.7123 18.3876 19.2638 17.077Z" fill="#5051F9"/>
</svg>