<svg xmlns="http://www.w3.org/2000/svg" width="18" height="22" viewBox="0 0 18 22" fill="none">
<path fill-rule="evenodd" clip-rule="evenodd" d="M11 1C11 0.447715 10.5523 0 10 0H3C1.34315 0 0 1.34315 0 3V19C0 20.6569 1.34315 22 3 22H15C16.6569 22 18 20.6569 18 19V8C18 7.44772 17.5523 7 17 7H14C12.3431 7 11 5.65685 11 4V1ZM5 12C5 11.4477 5.44771 11 6 11H12C12.5523 11 13 11.4477 13 12C13 12.5523 12.5523 13 12 13H6C5.44771 13 5 12.5523 5 12ZM5 16C5 15.4477 5.44771 15 6 15H9C9.55229 15 10 15.4477 10 16C10 16.5523 9.55229 17 9 17H6C5.44771 17 5 16.5523 5 16Z" fill="#FF694A"/>
<path d="M13.9774 0.177566C13.4681 -0.0360106 13 0.447767 13 1.00005V4.00005C13 4.55234 13.4477 5.00005 14 5.00005H17C17.5523 5.00005 18.0361 4.53194 17.8225 4.02262C17.73 3.80212 17.5972 3.59721 17.4142 3.41427L14.5858 0.585838C14.4028 0.402892 14.1979 0.270032 13.9774 0.177566Z" fill="#FF694A"/>
</svg>