<svg xmlns="http://www.w3.org/2000/svg" width="18" height="22" viewBox="0 0 18 22" fill="none">
<path d="M10 0C10.5523 0 11 0.447715 11 1V4C11 5.65685 12.3431 7 14 7H17C17.5523 7 18 7.44772 18 8V19C18 20.6569 16.6569 22 15 22H3C1.34315 22 0 20.6569 0 19V3C0 1.34315 1.34315 0 3 0H10Z" fill="#1EA7FF"/>
<path d="M13.9774 0.177566C13.4681 -0.0360106 13 0.447767 13 1.00005V4.00005C13 4.55234 13.4477 5.00005 14 5.00005H17C17.5523 5.00005 18.0361 4.53194 17.8225 4.02262C17.73 3.80212 17.5972 3.59721 17.4142 3.41427L14.5858 0.585838C14.4028 0.402892 14.1979 0.270032 13.9774 0.177566Z" fill="#1EA7FF"/>
</svg>