<svg xmlns="http://www.w3.org/2000/svg" width="20" height="20" viewBox="0 0 20 20" fill="none">
<path d="M3 0C1.34315 0 0 1.34315 0 3V17C0 18.6569 1.34315 20 3 20H10C10.5523 20 11 19.5523 11 19V14C11 12.3431 12.3431 11 14 11H19C19.5523 11 20 10.5523 20 10V3C20 1.34315 18.6569 0 17 0H3Z" fill="#EFBB55"/>
<path d="M19.7111 14.0418C19.9612 13.5139 19.4899 13 18.9058 13H14C13.4477 13 13 13.4477 13 14V18.9058C13 19.4899 13.5139 19.9612 14.0418 19.7111C14.3496 19.5653 14.6332 19.3668 14.8787 19.1213L19.1213 14.8787C19.3668 14.6332 19.5653 14.3496 19.7111 14.0418Z" fill="#EFBB55"/>
</svg>