<svg xmlns="http://www.w3.org/2000/svg" width="35" height="35" viewBox="0 0 35 35" fill="none">
<circle cx="17.5" cy="17.5" r="17.5" fill="#E9ECF5"/>
<path d="M24.4284 14.2067C23.8174 12.8027 22.7629 11.6378 21.4265 10.8904C20.0901 10.1431 18.5455 9.85454 17.0294 10.069C15.5133 10.2835 14.1094 10.9892 13.0327 12.0779C11.956 13.1666 11.266 14.5783 11.0684 16.0967C10.115 16.325 9.27866 16.8955 8.71817 17.6999C8.15769 18.5043 7.91212 19.4864 8.0281 20.4599C8.14408 21.4334 8.61353 22.3304 9.3473 22.9806C10.0811 23.6307 11.0281 23.9888 12.0084 23.9867C12.2737 23.9867 12.528 23.8814 12.7155 23.6938C12.9031 23.5063 13.0084 23.2519 13.0084 22.9867C13.0084 22.7215 12.9031 22.4671 12.7155 22.2796C12.528 22.0921 12.2737 21.9867 12.0084 21.9867C11.478 21.9867 10.9693 21.776 10.5942 21.4009C10.2191 21.0259 10.0084 20.5171 10.0084 19.9867C10.0084 19.4563 10.2191 18.9476 10.5942 18.5725C10.9693 18.1974 11.478 17.9867 12.0084 17.9867C12.2737 17.9867 12.528 17.8814 12.7155 17.6938C12.9031 17.5063 13.0084 17.2519 13.0084 16.9867C13.011 15.804 13.4327 14.6605 14.1987 13.7593C14.9647 12.8581 16.0253 12.2577 17.1922 12.0646C18.359 11.8715 19.5566 12.0983 20.572 12.7047C21.5874 13.3111 22.355 14.2579 22.7384 15.3767C22.7956 15.5486 22.8983 15.7016 23.0357 15.8196C23.1731 15.9376 23.3399 16.0161 23.5184 16.0467C24.1845 16.1726 24.7883 16.5203 25.2315 17.0332C25.6746 17.5462 25.931 18.1941 25.9588 18.8714C25.9867 19.5486 25.7843 20.2154 25.3847 20.7629C24.9852 21.3105 24.4119 21.7066 23.7584 21.8867C23.5012 21.953 23.2808 22.1188 23.1458 22.3476C23.0107 22.5764 22.9721 22.8495 23.0384 23.1067C23.1047 23.364 23.2705 23.5844 23.4993 23.7194C23.7281 23.8544 24.0012 23.893 24.2584 23.8267C25.3108 23.5486 26.2437 22.9347 26.9154 22.0782C27.5872 21.2217 27.961 20.1693 27.9803 19.081C27.9995 17.9926 27.663 16.9278 27.022 16.048C26.381 15.1683 25.4703 14.5218 24.4284 14.2067ZM18.7184 16.2767C18.6233 16.1857 18.5112 16.1143 18.3884 16.0667C18.145 15.9667 17.8719 15.9667 17.6284 16.0667C17.5057 16.1143 17.3935 16.1857 17.2984 16.2767L14.2984 19.2767C14.1101 19.465 14.0043 19.7204 14.0043 19.9867C14.0043 20.253 14.1101 20.5084 14.2984 20.6967C14.4867 20.885 14.7421 20.9908 15.0084 20.9908C15.2747 20.9908 15.5301 20.885 15.7184 20.6967L17.0084 19.3967V24.9867C17.0084 25.2519 17.1138 25.5063 17.3013 25.6938C17.4889 25.8814 17.7432 25.9867 18.0084 25.9867C18.2737 25.9867 18.528 25.8814 18.7155 25.6938C18.9031 25.5063 19.0084 25.2519 19.0084 24.9867V19.3967L20.2984 20.6967C20.3914 20.7904 20.502 20.8648 20.6239 20.9156C20.7457 20.9664 20.8764 20.9925 21.0084 20.9925C21.1404 20.9925 21.2712 20.9664 21.393 20.9156C21.5149 20.8648 21.6255 20.7904 21.7184 20.6967C21.8122 20.6037 21.8866 20.4931 21.9373 20.3713C21.9881 20.2494 22.0142 20.1187 22.0142 19.9867C22.0142 19.8547 21.9881 19.724 21.9373 19.6021C21.8866 19.4803 21.8122 19.3697 21.7184 19.2767L18.7184 16.2767Z" fill="#232360"/>
</svg>